<svg width="563" height="484" viewBox="0 0 563 484" fill="none" xmlns="http://www.w3.org/2000/svg">
<path d="M451.21 207.09C467.85 213.37 471.95 224.95 467.58 240.02C472.19 243.97 476.66 247.58 480.87 251.48C484.71 255.04 485.25 259.17 482.7 262.28C480.18 265.36 475.93 265.69 471.75 262.54C466.79 258.81 462.14 254.67 458.21 251.41C451.41 252.08 445.71 252.65 439.66 253.25C442.57 257.53 445.66 262.12 448.79 266.68C452.06 271.43 452.1 275.33 448.87 277.95C445.49 280.69 440.89 279.96 437.51 275.45C431.71 267.71 426.28 259.7 420.71 251.79C419.49 250.05 418.35 248.25 416.82 245.94C416.09 250.1 416 253.7 414.8 256.88C410.46 268.38 400.65 274.72 388.5 274.98C380.82 275.15 373.58 274.49 367.23 269.56C366.26 268.81 364.54 269.03 362.72 269.3C385.19 289.77 394.33 313.99 385.66 342.75C394.65 344.92 403.56 346.74 412.24 349.33C416.18 350.51 419.86 352.94 423.3 355.32C433.31 362.26 433.48 376.12 422.96 382.2C416.97 385.66 409.72 387.83 402.81 388.6C393.22 389.66 383.42 388.87 374 388.87C358.84 404.05 344.03 404.8 329.6 391.3C323.22 391.9 316.74 392.5 310.09 393.13C297.79 408.68 277.65 409.28 264.6 387.75C257.65 389.55 250.83 391.55 243.9 393C240.14 393.78 236.17 394 232.32 393.82C215.85 393.03 201.31 398.7 186.22 407.41C192.49 410.2 198.05 412.7 203.64 415.13C206.93 416.56 210.33 417.72 213.56 419.27C231.09 427.63 225.58 447.23 215.23 453.97C207.4 459.07 190.5 459 190.5 459C168.5 455 145.56 453.38 127.2 439.53C123.72 436.9 120.17 435.25 117.16 432.12C109.34 423.97 108.53 415.1 113.89 405.14C120.64 392.61 131.45 384.52 143.63 378.19C157.57 370.94 172.41 366.52 188.21 366.81C197.6 350.13 219.22 340.85 234.48 345.44C226.47 320.26 231.67 298.06 249.64 277.46C242.24 277 235.87 276.15 229.52 276.33C220.62 276.59 212.58 274.76 205.24 269.59C199.97 265.88 194.43 262.54 188.42 259.47C190.28 268.25 191.28 276.53 187.4 284.62C183.43 292.88 176.68 297.81 167.85 298.9C152.93 300.74 141.44 291.85 138.01 276.69C134.88 262.89 143.22 252.01 162.8 244.72C158.63 241.47 154.63 238.35 150.5 235.13C144.48 242.72 138.69 250.04 132.88 257.34C132.1 258.32 131.36 259.36 130.43 260.16C127.37 262.78 123.88 263.53 120.63 260.9C117.34 258.24 117.19 254.45 119.53 251.23C124.57 244.3 130.02 237.67 135.27 230.89C136.56 229.23 137.72 227.47 138.19 224.86C129.37 229.35 120.46 233.68 111.76 238.39C106.41 241.29 102.78 241.29 100.22 237.52C97.76 233.9 98.73 229.6 103.88 226.51C110.82 222.35 118.24 218.98 125.46 215.28C127.09 214.44 128.72 213.62 130.84 212.55C119.24 194.59 113.19 175.46 114.73 153.52C108.99 153.52 103.75 153.36 98.52 153.55C77.07 154.32 59.16 145.54 42.88 132.71C37.47 128.45 32.66 122.84 35.16 115.47C36.84 110.52 40.05 105.33 44.05 102.07C63.75 86.0202 84.92 71.9002 109.81 65.5502C129.62 60.5002 149.98 59.5502 170.15 65.2902C172.4 65.9302 175.57 65.5602 177.6 64.4002C199.31 52.0302 222.45 43.9902 246.95 39.0102C271.35 34.0502 295.93 33.6802 320.38 35.6902C343.9 37.6202 366.84 43.5802 388.59 53.3402C390.97 54.4102 393.98 54.4902 396.68 54.4002C414.25 53.8102 430.85 58.1502 447.2 63.9902C481.03 76.0702 508.04 97.8802 532.36 123.52C534.69 125.98 536.56 128.89 538.8 131.78V136.13C530.58 147.58 518.76 152.24 505.49 153.44C494.97 154.39 484.36 154.36 473.79 154.75C471.95 154.82 470.1 154.75 467.6 154.75C466.63 173.6 462.13 191.04 451.21 207.09ZM410.62 228.79C422.17 221.45 435.78 206.43 443.28 192.25C457.63 165.11 456.53 138.64 439.68 112.78C427.65 94.3102 410.89 81.3802 391.88 71.0502C366.31 57.1602 338.49 50.6302 309.82 48.7802C294.11 47.7702 278.16 49.6102 262.38 50.9402C243.53 52.5302 225.51 57.9202 208.11 65.2302C182.31 76.0602 159.66 91.2502 143.6 114.69C127.74 137.84 123.9 162.85 134.72 189.16C142.75 208.68 157.01 223.24 174.23 234.97C180.46 239.21 187.14 242.8 193.12 246.39C196.42 240.31 199.26 235.08 202.07 229.9C196.01 228.92 189.5 228.38 183.27 226.76C152.19 218.68 140.33 194.57 149.53 165.56C155.45 146.88 168.81 133.64 185.26 123.67C209.53 108.95 235.36 102.88 263.31 111.48C285.64 118.35 299.33 141.54 294.3 163.11C289.77 182.51 278.4 197.14 262.66 208.52C255.41 213.77 247.33 217.86 239.27 222.69C247.65 225.63 254.82 230.52 258.08 238.86C261.34 247.21 260.8 255.9 255.43 264.66C290.59 269.94 324.15 266.34 357.21 256.18C354.81 240.14 359.41 229.23 370.92 222.71C383.2 215.75 397.45 217.89 410.61 228.79H410.62ZM257.24 355.38C258.98 350.39 260.3 346.07 261.99 341.89C263.61 337.89 267.06 336.85 270.89 337.87C274.55 338.85 276.14 341.64 275.5 345.43C275.22 347.1 274.72 348.75 274.12 350.33C269.62 362.21 269.36 373.55 277.23 384.42C280.57 389.03 285.03 390.56 290.06 390.53C295.95 390.5 299.89 386.95 300.84 381.28C302.61 370.67 302.97 360.05 298.72 349.73C296.55 344.45 298.01 340.56 302.13 339.17C306.26 337.79 310.93 340.09 312.39 344.98C315.13 354.16 318.28 363.37 315.35 373.22C314.91 374.72 315.29 376.46 315.29 378.97C319.17 378.26 322.19 377.7 325.25 377.14C325.25 368.34 324.83 360.51 325.43 352.75C325.73 348.94 327.31 344.88 329.43 341.67C331.48 338.55 335.63 337.93 338.58 340.37C340.34 341.83 341.66 345.12 341.45 347.43C340.85 354.15 339.45 360.81 338.25 367.47C336.42 377.66 339.56 385.87 351.72 387.2C353.12 386.69 354.71 386.1 355 385.99C362.14 380.41 364.08 373.5 364.89 366.29C365.74 358.67 365.21 350.99 360.38 344.68C358.26 341.91 357.21 339.73 359.17 336.83C361.42 333.5 364.57 332.76 368.18 334.49C369.39 335.07 370.43 336.02 372.27 337.31C373.04 333.49 374.1 330.26 374.28 326.99C375.54 304.14 364.47 288.09 345.78 276.51C344.01 275.41 341.34 275.14 339.2 275.39C327.24 276.78 315.32 278.53 303.36 279.99C300.12 280.38 296.82 280.22 293.54 280.26C289.42 280.32 285.29 280.59 281.2 280.29C274.27 279.78 268 279.48 262.29 285.29C249.92 297.87 243.53 312.45 245.6 330.03C246.69 339.35 250.49 347.88 257.24 355.35V355.38ZM190.51 137.31C177.92 146.36 167.83 156.45 162.94 170.69C161.36 175.3 159.86 180.52 160.46 185.19C162.3 199.43 171.11 208.36 184.64 212.52C194.42 215.52 204.29 215.85 214.53 214.03C235.62 210.29 253.34 200.7 267.35 184.71C272.1 179.28 275.35 172.54 279.29 166.39C278.8 166.02 278.32 165.64 277.83 165.27C270.66 173.35 261.36 178.36 251.18 179.74C233.69 182.11 217.45 177.5 203.49 166.33C197.93 161.88 193.41 156.51 192.2 149.12C191.61 145.49 191.15 141.84 190.51 137.32V137.31ZM115.08 138.81C121.13 127.09 125.86 115.24 132.92 105C139.98 94.7402 149.37 86.0802 157.66 76.8102C131.12 73.5602 105.65 77.5002 82.58 92.9802C71.01 100.74 57.46 106.02 49.1 119.04C69.1 136.12 90.82 144.04 115.09 138.82L115.08 138.81ZM188.2 379.7C185.35 380.19 182.21 380.74 179.06 381.27C164.39 383.76 150.62 388.62 139.11 398.22C134.3 402.23 130.42 407.46 126.59 412.5C124.18 415.68 124.52 419.25 127.81 422.11C129.93 423.95 131.82 426.09 134.09 427.71C153.57 441.59 175.87 445.44 199.12 445.38C206.02 445.36 210.69 439.93 209.57 433.22C205.95 431.65 201.78 430 197.77 428.05C190.08 424.3 182.03 421.06 174.96 416.36C165.42 410.02 166.93 399.47 177.41 394.77C178.54 394.26 179.79 394.01 180.92 393.5C185.35 391.5 189.75 389.44 194.57 387.21C193 385.49 192.13 384.61 191.34 383.66C190.44 382.59 189.61 381.47 188.22 379.69L188.2 379.7ZM521.4 134.64C521.39 133.96 521.37 133.28 521.36 132.6C493.46 103.76 462.26 80.2602 421.81 71.5602C422.52 72.8302 423.51 73.7202 424.47 74.6602C431.48 81.5202 438.97 87.9702 445.39 95.3502C455.15 106.57 461.23 119.94 464.96 134.28C466.77 141.24 467.02 141.93 474.19 141.74C483.04 141.51 491.98 141.57 500.71 140.33C507.74 139.34 514.52 136.6 521.41 134.64H521.4ZM254.75 374.87C250.95 371.12 247.11 367.32 243.26 363.52C243.46 362.98 243.67 362.43 243.87 361.89C236.01 360.87 227.9 358.18 220.35 359.29C212.53 360.44 205.35 365.38 201.83 373.49C212.23 382.4 241.74 383.38 254.74 374.87H254.75ZM208.03 248.36C208.76 253.82 211.22 257.12 214.77 259.29C221.95 263.69 229.88 264.85 237.55 261.18C245.57 257.34 250.81 247.14 240.53 239.59C233.47 234.41 221.51 234.06 214.66 239.53C211.87 241.76 210.2 245.37 208.02 248.36H208.03ZM370.75 247.98C369.53 255.96 378.29 262.83 384.83 263.22C392.95 263.7 403.51 254 403.47 246.48C403.43 238.67 396.32 232.29 386.7 232.51C376.87 232.73 369.56 241.16 370.75 247.99V247.98ZM378.18 374.47C386.63 378.82 410.6 375.31 415.81 368.91C410.17 360.19 389.39 355.56 378.82 360.74C378.61 365.13 378.41 369.58 378.18 374.47ZM176.28 272.43C173.79 263.59 169.11 259.05 163.19 259.73C157.96 260.33 152.46 266.64 152.33 272.2C152.19 278.07 156.84 284.01 162.15 284.78C167.55 285.56 174.16 283.21 176.28 272.43ZM446.08 220.83C439.01 223.49 435.91 227.15 436.82 231.6C437.61 235.45 442.08 239.15 445.95 239.16C449.85 239.17 454.11 235.44 454.78 231.41C455.6 226.48 453.01 223.26 446.08 220.84V220.83Z" fill="white"/>
<path d="M200.97 299.96C212.76 298.08 224 311.14 223.56 322.05C223.03 335.19 213.74 344.57 200.11 344.56C186.62 344.55 177.95 335.43 177.97 321.26C177.98 308.37 187.06 299.96 200.97 299.96ZM192.11 322.34C191.862 327 196.93 331.44 202.45 330.24C206.51 329.36 208.9 326.75 208.98 322.34C209.07 317.63 206.45 315.09 202.21 314.22C196.87 313.12 192.5 315 192.11 322.34Z" fill="white"/>
<path d="M421.21 278.8C431.36 278.8 438.72 285.9 438.5 295.5C438.28 305.15 431.16 311.9 421.19 311.88C411.03 311.86 404.63 305.18 404.66 294.6C404.69 284.62 410.78 278.79 421.21 278.79V278.8ZM417.5 295C417.5 299 423 301.5 424.66 295.5C425 290 417 290 417.5 295Z" fill="white"/>
<path d="M396.67 205.19C365.46 203.95 339.12 192.89 318.09 169.88C310.2 161.24 305.1 150.91 304.74 139.21C304.17 120.84 315.59 106.58 335.59 101.52C366.39 93.7301 394.72 101.36 420.54 118.98C430.82 126 439.48 134.75 445 146.18C456.63 170.25 446.24 194.05 420.42 201.33C412.75 203.49 404.6 203.95 396.67 205.18V205.19ZM337.7 169.56C342.28 172.5 346.73 175.66 351.46 178.34C362.94 184.85 375.31 188.46 388.43 190.36C401.64 192.27 413.92 190.37 425.09 183.49C431.65 179.45 435.63 173.34 435.25 164.75C434.88 156.22 430.92 149.61 425.94 143.35C419.91 135.76 412.4 129.96 403.55 125.4C399.15 158.31 377.72 172.25 337.69 169.56H337.7Z" fill="white"/>
<path d="M312.26 221.6C309.53 225.47 307.12 228.87 304.71 232.29C301.27 237.18 296.53 238.74 292.8 236.2C289.08 233.67 288.96 229.45 292.51 224.3C294.46 221.48 296.46 218.7 298.41 215.88C298.66 215.52 298.74 215.03 299.06 214.19C294.73 210.62 286.67 207.6 291.57 200.36C297.01 192.33 302.68 200.26 308.36 202.46C309.98 200.48 311.55 198.58 313.1 196.66C316.08 192.99 320.55 191.91 323.87 194.06C327.29 196.28 327.71 200.31 324.92 204.83C323.88 206.52 322.69 208.12 321.35 210.08C324.67 212.35 327.79 214.35 330.75 216.55C334.87 219.6 336.03 223.73 333.89 227.05C331.6 230.59 327.22 231.17 322.66 228.37C319.34 226.34 316.13 224.13 312.25 221.61L312.26 221.6Z" fill="white"/>
</svg>
